<?xml version="1.0" standalone="no"?>
<!DOCTYPE svg PUBLIC "-//W3C//DTD SVG 20010904//EN"
 "http://www.w3.org/TR/2001/REC-SVG-20010904/DTD/svg10.dtd">
<svg version="1.0" xmlns="http://www.w3.org/2000/svg"
 width="1024.000000pt" height="1024.000000pt" viewBox="0 0 1024.000000 1024.000000"
 preserveAspectRatio="xMidYMid meet">

<g transform="translate(0.000000,1024.000000) scale(0.100000,-0.100000)"
fill="#000000" stroke="none">
<path d="M2575 8604 c-178 -38 -303 -126 -372 -264 -46 -91 -53 -143 -53 -385
l0 -211 73 25 72 26 2775 3 c1988 2 2793 0 2840 -8 36 -6 91 -22 123 -35 l57
-23 0 32 c0 159 -84 311 -208 379 -110 60 -32 57 -1622 57 l-1455 0 -50 24
c-59 28 -94 64 -160 164 -68 104 -167 174 -292 207 -49 13 -180 15 -883 14
-454 -1 -834 -3 -845 -5z"/>
<path d="M2082 7466 c-131 -32 -260 -130 -320 -244 -44 -83 -62 -164 -62 -281
0 -97 4 -112 25 -92 6 5 46 22 90 38 l80 28 3193 3 c3501 2 3268 6 3395 -56
l57 -29 0 91 c-1 180 -47 304 -155 411 -33 33 -86 72 -117 87 -128 62 111 58
-3153 57 -2381 -1 -2991 -3 -3033 -13z"/>
<path d="M1881 6594 c-209 -56 -371 -227 -428 -449 -17 -66 -18 -175 -18
-1925 0 -1698 1 -1861 17 -1926 73 -313 321 -581 615 -666 l78 -23 2965 0
c2878 0 2967 1 3035 19 308 83 545 330 628 653 l22 88 0 1860 c0 2081 6 1906
-72 2065 -69 141 -235 276 -383 309 -30 7 -1087 10 -3225 10 -2755 0 -3187 -2
-3234 -15z m3393 -415 c135 -14 130 -8 121 -153 -5 -66 -9 -141 -9 -166 -1
-52 -16 -42 225 -151 12 -5 39 15 100 74 112 110 147 137 176 137 19 0 60 -34
158 -130 73 -72 141 -146 151 -165 25 -47 17 -58 -121 -181 -60 -53 -111 -101
-113 -105 -2 -4 8 -29 21 -56 14 -26 35 -77 47 -113 13 -36 28 -70 34 -76 8
-8 53 -9 151 -4 167 8 179 4 189 -66 3 -26 6 -127 6 -225 0 -221 9 -209 -165
-209 -181 0 -191 -3 -209 -58 -23 -67 -21 -75 31 -113 71 -52 68 -51 69 -7 1
22 7 44 14 48 23 14 222 41 347 47 147 7 136 20 153 -177 7 -74 16 -139 20
-144 5 -5 49 -19 97 -32 48 -12 103 -27 121 -33 l33 -10 87 107 c112 137 118
142 146 142 13 0 59 -25 102 -56 170 -122 254 -198 254 -229 0 -8 -42 -70 -93
-137 -51 -68 -97 -129 -101 -136 -5 -8 12 -44 45 -94 28 -45 69 -119 91 -166
l39 -84 154 7 c147 7 154 6 164 -13 14 -26 35 -348 27 -406 -4 -24 -12 -49
-19 -54 -7 -6 -76 -14 -154 -18 -78 -3 -145 -9 -150 -13 -5 -3 -26 -49 -46
-101 -21 -52 -57 -129 -81 -170 -30 -52 -41 -80 -35 -90 4 -8 49 -59 98 -114
60 -64 91 -106 91 -121 0 -17 -35 -56 -125 -141 -157 -148 -186 -169 -221
-160 -14 4 -73 52 -129 107 l-103 100 -104 -35 c-58 -20 -114 -36 -125 -36
-11 0 -26 -6 -32 -13 -6 -8 -16 -81 -21 -162 -6 -85 -16 -155 -23 -163 -14
-17 -155 -11 -341 13 -155 20 -153 18 -132 182 23 183 24 178 -26 197 -24 10
-78 37 -121 62 -45 26 -83 42 -90 37 -7 -4 -55 -42 -108 -85 -123 -100 -136
-105 -183 -70 -44 33 -232 235 -258 277 -27 45 -22 67 25 111 33 32 203 174
214 179 1 1 -6 30 -17 65 -11 35 -22 84 -26 107 -3 24 -12 50 -20 57 -7 7 -55
18 -106 25 -51 6 -115 14 -141 18 -79 10 -81 15 -73 178 3 77 11 172 16 210
13 89 30 105 112 105 l59 0 -23 38 c-55 92 -45 87 -123 69 -39 -9 -111 -19
-160 -23 l-91 -7 13 -71 c17 -95 27 -357 14 -376 -7 -10 -55 -18 -173 -30
l-163 -15 -18 -55 c-11 -30 -30 -84 -44 -119 l-24 -65 126 -120 c93 -90 125
-127 125 -145 0 -17 -31 -55 -102 -128 -119 -121 -196 -183 -226 -183 -20 0
-66 40 -209 176 l-42 42 -73 -38 c-40 -21 -94 -45 -120 -55 -56 -21 -55 -11
-36 -208 10 -111 10 -129 -3 -143 -18 -17 -185 -34 -350 -34 -87 0 -109 3
-120 16 -10 12 -15 61 -19 171 l-5 155 -100 34 c-55 19 -107 37 -116 40 -12 4
-47 -29 -118 -110 -138 -156 -124 -157 -338 22 -62 51 -120 103 -128 115 -30
43 -19 67 90 191 58 65 105 122 105 126 0 7 -81 187 -99 220 -10 17 -25 18
-198 6 -120 -8 -122 -7 -137 16 -27 42 -50 410 -27 446 5 8 52 16 137 23 204
16 193 11 219 99 11 41 33 101 47 132 l26 56 -119 115 c-87 83 -119 120 -119
138 0 18 33 57 131 152 72 70 145 135 160 143 40 20 62 7 181 -105 53 -50 101
-91 107 -91 7 0 23 8 37 17 15 9 67 33 118 53 l91 37 0 59 c0 32 -4 102 -8
154 -11 129 -10 129 124 140 161 14 345 12 356 -2 6 -7 13 -25 17 -40 l6 -28
45 22 c47 23 52 35 34 85 -10 30 -11 31 -147 52 -75 12 -145 21 -154 21 -10 0
-28 10 -39 21 -20 20 -21 28 -15 98 9 99 34 276 47 323 5 21 17 42 27 47 11 6
69 2 160 -11 78 -11 148 -18 155 -15 7 3 25 36 40 75 15 38 43 95 62 126 l34
57 -103 112 c-114 124 -130 148 -122 182 9 34 260 256 313 276 39 15 70 -9
169 -134 70 -86 100 -117 112 -113 90 29 210 70 222 76 12 6 16 39 21 161 7
182 5 164 26 184 14 15 32 16 137 10 67 -3 161 -11 210 -16z"/>
<path d="M5040 5359 c-268 -30 -459 -272 -437 -553 23 -298 313 -514 607 -452
244 51 410 254 410 501 0 133 -42 242 -132 340 -119 131 -267 185 -448 164z"/>
<path d="M3638 3797 c-173 -59 -286 -192 -325 -383 -51 -251 110 -507 358
-568 256 -63 523 84 599 331 27 88 27 218 0 304 -46 150 -177 278 -329 323
-83 24 -220 21 -303 -7z"/>
<path d="M6413 3665 c-166 -45 -301 -173 -354 -337 -32 -100 -32 -245 1 -333
62 -163 200 -287 360 -324 66 -15 197 -13 265 4 117 31 228 111 300 217 63 93
94 239 76 361 -30 195 -192 373 -381 416 -63 15 -205 12 -267 -4z"/>
</g>
</svg>
